# xmcd
#
# Track frame offsets:
#	150
#	17660
#	34327
#	47853
#	63451
#	79396
#	97616
#	113417
#	129258
#	147119
#	161203
#	179685
#
# Disc length: 2621 seconds
#
# Revision: 0
# Processed by: cddbd v1.4PL0 Copyright (c) Steve Scherf et al.
# Submitted via: audiograbber 1.80
#
DISCID=9c0a3b0c
DTITLE=Gian and Giovani - Sucessos de Ouro vol. 2
DYEAR=1900
DGENRE=
TTITLE0=Olha Amor
TTITLE1=Sai Dessa Coração
TTITLE2=Eu Quero Te Amar
TTITLE3=Meu Coração Só Quer Você
TTITLE4=Por que Será
TTITLE5=Faz de Conta
TTITLE6=Não da Pra Te Esquecer
TTITLE7=De Que Planeta Você Veio
TTITLE8=Meto o Pé na Porta
TTITLE9=É Hora de Recomeçar
TTITLE10=Cansei de Namorar a Solidão
TTITLE11=Agora Sei que Te Amava
EXTD=
EXTT0=
EXTT1=
EXTT2=
EXTT3=
EXTT4=
EXTT5=
EXTT6=
EXTT7=
EXTT8=
EXTT9=
EXTT10=
EXTT11=
PLAYORDER=
